<svg xmlns="http://www.w3.org/2000/svg" width="1224" height="688.002" viewBox="0 0 1224 688.002">
  <g id="Group_1568" data-name="Group 1568" transform="translate(7550 8099.895)">
    <g id="Group_1567" data-name="Group 1567" transform="translate(-7898 -10548.895)">
      <g id="Group_1519" data-name="Group 1519" transform="translate(129.9 73.003)">
        <path id="Subtraction_2" data-name="Subtraction 2" d="M1207,688H17A17,17,0,0,1,0,671V17A17,17,0,0,1,17,0H1207a17,17,0,0,1,17,17V671a17,17,0,0,1-17,17ZM28.547,11.55a17.019,17.019,0,0,0-17,17V660.277a17.019,17.019,0,0,0,17,17H1195.453a17.019,17.019,0,0,0,17-17V28.55a17.019,17.019,0,0,0-17-17Z" transform="translate(218.099 2375.997)" fill="#362d2d"/>
      </g>
      <rect id="Rectangle_102" data-name="Rectangle 102" width="202" height="29" rx="9" transform="translate(859 2449)" fill="#362d2d"/>
    </g>
  </g>
</svg>